<?xml version="1.0" standalone="no"?>
<!DOCTYPE svg PUBLIC "-//W3C//DTD SVG 20010904//EN"
 "http://www.w3.org/TR/2001/REC-SVG-20010904/DTD/svg10.dtd">
<svg version="1.0" xmlns="http://www.w3.org/2000/svg"
 width="500.000000pt" height="500.000000pt" viewBox="0 0 500.000000 500.000000"
 preserveAspectRatio="xMidYMid meet">

<g transform="translate(0.000000,500.000000) scale(0.100000,-0.100000)"
fill="#000000" stroke="none">
<path d="M506 4067 c-14 -14 -32 -49 -40 -79 -19 -62 -26 -148 -13 -148 5 0 6
-7 3 -16 -3 -8 -2 -13 3 -10 4 3 8 -10 9 -29 1 -19 13 -69 27 -111 14 -41 22
-80 19 -86 -4 -7 -2 -8 4 -4 7 4 13 -7 18 -29 3 -20 9 -33 12 -31 3 3 14 -8
24 -25 36 -59 117 -139 193 -190 30 -20 51 -40 47 -45 -4 -4 1 -4 11 -1 9 4
17 2 17 -3 0 -5 11 -12 25 -16 14 -3 22 -11 19 -16 -4 -6 2 -7 16 -3 15 5 20
4 16 -4 -4 -6 -2 -9 6 -6 8 3 31 -3 53 -14 22 -10 43 -17 46 -15 4 2 12 -10
20 -27 10 -25 10 -50 1 -118 -6 -49 -9 -165 -7 -273 l4 -187 -37 -6 c-85 -13
-250 -47 -292 -60 -25 -8 -63 -15 -85 -17 -39 -3 -40 -4 -41 -43 0 -22 -7 -51
-16 -65 -10 -14 -20 -45 -23 -70 -4 -25 -11 -55 -17 -67 -8 -16 -8 -26 0 -36
6 -7 13 -62 15 -123 4 -101 8 -116 42 -189 31 -65 53 -95 123 -164 47 -46 101
-90 120 -98 46 -19 160 -18 230 2 76 22 190 83 209 111 21 33 13 60 -16 56
l-24 -4 20 29 c11 15 32 51 46 78 23 45 31 52 87 74 100 38 154 99 128 145 -5
9 -17 16 -27 16 -27 0 -33 25 -25 97 6 55 9 63 28 63 29 0 43 11 48 35 2 15
-5 22 -29 30 -28 8 -33 13 -32 40 1 16 4 44 8 60 6 29 7 30 59 27 59 -4 82 8
82 44 0 15 -8 25 -22 30 -34 11 -164 17 -349 17 l-166 0 -2 286 -2 287 58 28
c93 45 243 149 312 217 90 89 143 209 113 256 -4 6 -20 17 -35 22 -87 33 -283
-93 -383 -246 -19 -29 -39 -53 -45 -53 -5 0 -14 -10 -19 -22 -7 -18 -9 -10
-10 37 -2 70 -2 72 -29 192 -11 51 -34 125 -51 165 -34 83 -118 200 -160 225
-16 9 -27 20 -24 24 2 4 -4 5 -14 3 -9 -3 -28 5 -42 18 -13 13 -27 22 -30 21
-13 -7 -40 10 -41 25 0 10 -3 12 -6 5 -3 -8 -11 -10 -21 -5 -9 5 -41 10 -69
11 -44 2 -56 -1 -77 -22z m78 -48 c-3 -5 2 -9 11 -9 38 0 174 -81 231 -137 57
-57 115 -140 83 -118 -8 6 -6 2 6 -9 11 -10 20 -21 21 -25 0 -3 10 -38 22 -78
13 -40 25 -89 27 -110 17 -153 17 -149 0 -128 -24 30 -85 124 -85 130 0 3 -9
16 -20 28 -11 12 -18 27 -15 35 2 7 1 10 -5 7 -11 -7 -32 29 -22 40 4 5 2 5
-5 1 -7 -4 -18 9 -29 34 -10 22 -21 40 -25 40 -4 0 -17 15 -28 33 -11 18 -31
46 -45 61 -13 16 -22 36 -19 45 4 13 3 13 -5 2 -7 -9 -12 -10 -16 -2 -4 6 -12
9 -17 6 -12 -8 -12 -72 1 -80 5 -3 7 -12 3 -20 -3 -8 0 -15 7 -15 7 0 10 -7 6
-16 -3 -8 -2 -13 3 -10 7 5 81 -92 81 -107 0 -3 13 -20 30 -38 16 -18 28 -35
25 -37 -2 -2 5 -14 16 -26 20 -21 75 -111 80 -131 4 -15 23 -33 30 -29 4 2 7
-8 7 -22 0 -15 -4 -21 -8 -14 -4 6 -10 11 -14 11 -24 -3 -35 2 -41 18 -4 13
-12 18 -22 14 -11 -4 -14 -2 -9 5 5 8 0 12 -13 12 -12 0 -26 9 -33 20 -7 11
-17 20 -22 20 -11 0 -105 95 -137 140 -39 54 -72 129 -64 147 3 10 3 14 -1 10
-9 -8 -36 42 -29 53 3 5 1 11 -4 14 -4 3 -12 38 -15 77 -4 39 -11 82 -16 95
-6 15 -4 32 5 52 12 24 20 28 45 24 16 -2 27 -8 24 -13z m932 -397 c16 -10 13
-42 -5 -64 -55 -65 -123 -128 -133 -122 -7 5 -8 3 -3 -6 6 -10 4 -12 -8 -7
-11 4 -14 2 -11 -8 4 -9 -3 -16 -20 -21 -15 -3 -23 -11 -19 -17 4 -6 0 -8 -10
-4 -8 3 -17 0 -20 -6 -3 -7 -20 -20 -38 -31 l-34 -18 28 26 c15 15 27 31 27
36 0 6 6 10 14 10 8 0 18 9 21 20 4 11 10 18 14 16 4 -3 7 4 8 14 2 25 -25 34
-51 16 -12 -8 -45 -37 -74 -66 -29 -29 -56 -50 -59 -46 -4 3 -1 6 5 6 7 0 12
5 12 11 0 20 53 74 68 71 14 -3 14 -1 3 12 -12 15 -8 20 12 17 5 -1 6 3 3 8
-8 12 18 33 29 23 5 -4 5 -2 2 4 -6 11 26 44 44 44 5 0 7 5 4 10 -3 6 1 10 9
10 9 0 16 5 16 11 0 5 4 8 9 5 5 -4 11 -2 13 3 1 5 21 18 43 30 40 21 81 27
101 13z m-118 -1110 c9 -6 10 -23 5 -63 -7 -45 -12 -55 -31 -57 -18 -3 -22 1
-22 22 0 13 -5 37 -10 52 -6 15 -9 33 -6 41 6 14 44 17 64 5z m-13 -244 c-5
-111 -4 -108 -26 -108 -17 0 -20 4 -15 23 3 12 6 46 6 75 0 44 3 52 18 52 16
0 19 -7 17 -42z"/>
<path d="M705 3549 c-4 -6 -5 -12 -2 -15 2 -3 7 2 10 11 7 17 1 20 -8 4z"/>
<path d="M718 4063 c7 -3 16 -2 19 1 4 3 -2 6 -13 5 -11 0 -14 -3 -6 -6z"/>
<path d="M3430 3488 c0 -18 9 -51 19 -73 10 -22 28 -73 40 -113 21 -67 43 -91
54 -59 7 20 -48 219 -69 255 -22 33 -44 28 -44 -10z"/>
<path d="M3626 3481 c-3 -5 -1 -44 4 -87 6 -44 7 -108 3 -144 l-8 -65 -37 -6
c-46 -7 -68 -25 -68 -55 0 -18 -6 -24 -21 -24 -12 0 -30 -11 -41 -25 -11 -14
-25 -25 -32 -25 -19 0 -39 -45 -33 -72 4 -13 24 -43 46 -67 21 -24 49 -64 61
-90 13 -25 30 -52 38 -58 19 -16 78 -17 87 -2 4 5 32 22 63 36 68 30 164 120
197 183 13 25 35 60 49 79 27 37 34 79 14 99 -16 16 -44 -2 -64 -41 -20 -38
-89 -107 -107 -107 -6 0 -25 9 -41 19 -22 14 -30 29 -32 53 -2 18 -5 67 -8
108 -2 41 -6 77 -7 80 -1 3 0 47 1 98 2 97 -6 122 -41 122 -10 0 -20 -4 -23
-9z"/>
<path d="M534 3452 c23 -26 23 -26 23 -7 0 8 -3 13 -5 10 -3 -3 -12 1 -21 7
-10 8 -9 4 3 -10z"/>
<path d="M3270 3383 c1 -37 140 -236 155 -221 4 3 -20 57 -52 120 -45 88 -63
114 -80 116 -17 3 -23 -2 -23 -15z"/>
<path d="M617 3377 c-3 -8 1 -14 8 -14 7 0 11 6 8 14 -3 7 -6 13 -8 13 -2 0
-5 -6 -8 -13z"/>
<path d="M4346 3268 c3 -4 11 -5 19 -1 21 7 19 12 -4 10 -11 0 -18 -5 -15 -9z"/>
<path d="M4285 3209 c-4 -6 -5 -12 -2 -15 2 -3 7 2 10 11 7 17 1 20 -8 4z"/>
<path d="M1161 3172 c-17 -33 -33 -146 -35 -252 -1 -113 6 -155 28 -163 27
-11 46 17 57 83 19 113 18 110 43 110 30 0 36 -16 36 -90 0 -69 16 -110 42
-110 28 0 38 40 38 148 0 121 -11 146 -64 150 -21 2 -43 -1 -49 -7 -20 -20
-24 -12 -30 55 -4 37 -12 73 -18 80 -16 19 -36 18 -48 -4z"/>
<path d="M1845 3157 c-17 -27 -20 -55 -23 -198 -4 -169 2 -209 33 -209 22 0
45 41 45 81 0 36 29 77 37 53 12 -37 71 -119 87 -122 43 -9 41 36 -4 128 l-28
55 35 44 c36 47 42 93 13 99 -9 1 -36 -18 -60 -43 -55 -54 -75 -58 -66 -12 9
52 -6 128 -29 143 -19 12 -23 11 -40 -19z"/>
<path d="M2805 3176 c-67 -29 -125 -141 -125 -239 0 -61 36 -146 71 -171 13
-9 40 -16 61 -16 30 0 39 5 50 27 7 15 25 34 40 41 16 7 29 24 33 41 3 15 17
38 31 50 48 42 5 86 -73 77 -78 -10 -107 -48 -61 -80 21 -15 21 -16 3 -36 -22
-24 -29 -25 -49 -4 -36 35 -4 211 41 228 20 8 43 -11 41 -32 -3 -36 3 -50 22
-55 28 -7 50 13 57 55 7 49 -12 95 -48 113 -34 18 -55 18 -94 1z"/>
<path d="M1458 3173 c-19 -5 -24 -38 -8 -48 20 -12 51 6 48 28 -3 22 -13 27
-40 20z"/>
<path d="M2273 3161 c-40 -19 -42 -22 -48 -76 -11 -86 -1 -290 14 -309 9 -11
30 -16 62 -16 59 0 96 13 132 48 38 36 39 104 1 143 l-26 27 26 29 c14 15 29
42 32 60 3 18 7 33 9 33 1 0 17 -5 35 -11 l33 -12 -7 -100 c-8 -123 -13 -145
-36 -152 -27 -9 -36 -44 -16 -63 14 -14 25 -15 83 -5 72 13 110 39 99 68 -3 9
-15 19 -26 22 -18 5 -19 12 -13 122 5 107 7 117 29 134 32 25 31 55 -3 68 -41
16 -129 2 -160 -25 l-27 -23 -24 28 c-21 25 -31 29 -75 29 -29 0 -70 -9 -94
-19z m99 -106 c-4 -22 -30 -55 -44 -55 -10 0 -11 64 -1 74 4 4 16 6 28 4 14
-2 19 -9 17 -23z m-2 -155 c0 -16 -26 -40 -44 -40 -8 0 -7 45 1 53 14 15 43 7
43 -13z"/>
<path d="M3200 3101 c0 -9 74 -61 86 -61 4 0 15 -7 25 -16 20 -18 39 -11 39
15 0 25 -18 38 -76 56 -56 17 -74 19 -74 6z"/>
<path d="M4439 3103 c-1 -1 -2 -6 -3 -10 -1 -5 -5 -15 -10 -23 -5 -8 3 -4 17
9 15 14 27 25 27 26 0 3 -30 2 -31 -2z"/>
<path d="M1560 3071 c-13 -25 -13 -251 0 -285 12 -32 45 -34 60 -5 7 11 14 55
17 97 6 85 16 112 40 112 14 0 15 -12 9 -95 -8 -112 -2 -145 26 -145 50 0 92
225 54 297 -21 41 -57 49 -107 24 -38 -20 -38 -20 -44 -1 -8 26 -41 26 -55 1z"/>
<path d="M1433 3043 c-22 -53 -15 -245 9 -269 22 -23 44 -6 58 45 14 49 13
204 -2 236 -17 37 -46 32 -65 -12z"/>
<path d="M4354 3028 l-19 -23 23 19 c21 18 27 26 19 26 -2 0 -12 -10 -23 -22z"/>
<path d="M4543 2965 c0 -8 4 -12 9 -9 5 3 6 10 3 15 -9 13 -12 11 -12 -6z"/>
<path d="M4274 2870 c0 -13 4 -16 10 -10 7 7 7 13 0 20 -6 6 -10 3 -10 -10z"/>
<path d="M4205 2629 c-4 -6 -5 -12 -2 -15 2 -3 7 2 10 11 7 17 1 20 -8 4z"/>
<path d="M4450 2520 c-16 -29 -30 -188 -21 -231 14 -71 61 -36 61 46 0 39 14
52 35 35 10 -8 15 -31 15 -62 0 -35 4 -50 16 -55 25 -9 34 16 34 94 0 90 -24
122 -70 93 -12 -8 -17 0 -25 42 -11 57 -28 71 -45 38z"/>
<path d="M2334 2494 c-12 -29 -15 -62 -12 -131 4 -95 14 -120 43 -110 13 6 15
25 13 138 -3 145 -15 172 -44 103z"/>
<path d="M3450 2515 c-7 -8 -16 -30 -19 -48 -9 -41 -20 -41 -35 2 -16 49 -31
48 -51 -1 l-18 -43 -11 45 c-13 54 -41 67 -52 23 -11 -43 10 -211 29 -230 20
-21 41 -6 59 43 6 19 15 34 18 34 3 0 14 -19 25 -42 11 -24 27 -43 35 -43 36
0 79 237 48 263 -12 10 -18 9 -28 -3z"/>
<path d="M3780 2512 c-42 -20 -46 -46 -9 -50 26 -3 26 -4 31 -103 5 -105 16
-132 43 -109 11 9 15 34 15 104 l0 91 37 31 c22 18 33 35 29 42 -11 18 -106
14 -146 -6z"/>
<path d="M2094 2462 c-32 -25 -44 -55 -44 -107 0 -38 5 -52 29 -76 16 -16 39
-29 51 -29 22 0 80 50 80 69 0 13 -35 14 -59 2 -10 -6 -23 -6 -31 -1 -11 7 -9
11 12 19 28 11 68 56 68 78 0 20 -46 63 -67 63 -10 0 -28 -8 -39 -18z m56 -51
c0 -10 -30 -24 -37 -17 -3 3 -2 9 2 15 8 13 35 15 35 2z"/>
<path d="M2454 2462 c-32 -25 -44 -55 -44 -105 0 -48 25 -91 60 -102 41 -13
122 56 89 76 -7 4 -24 2 -39 -6 -16 -8 -32 -10 -40 -5 -12 7 -11 10 5 16 63
22 88 97 43 128 -29 20 -48 20 -74 -2z m56 -52 c0 -12 -28 -25 -36 -17 -9 9 6
27 22 27 8 0 14 -5 14 -10z"/>
<path d="M3547 2459 c-31 -24 -50 -83 -41 -128 7 -33 48 -81 71 -81 25 0 71
29 78 50 9 29 -2 42 -25 30 -10 -5 -29 -10 -42 -9 -22 0 -22 1 -4 12 67 41 87
101 44 131 -30 21 -50 20 -81 -5z m51 -51 c-3 -7 -12 -14 -21 -16 -12 -2 -15
1 -11 12 7 19 38 22 32 4z"/>
<path d="M3964 2469 c-32 -16 -54 -62 -54 -114 0 -38 5 -52 29 -76 36 -36 60
-37 100 -3 l31 25 24 -28 c22 -25 27 -27 54 -17 25 9 33 9 46 -4 27 -28 46 1
46 72 0 108 -49 165 -118 137 -34 -14 -48 -39 -33 -54 7 -7 19 -6 37 2 22 10
30 9 42 -2 13 -13 9 -18 -32 -36 -25 -11 -49 -26 -52 -34 -3 -9 -14 -12 -28
-10 -13 3 -32 0 -43 -5 -11 -6 -25 -7 -33 -2 -11 7 -9 11 12 19 28 11 68 56
68 78 0 18 -45 63 -62 62 -7 0 -22 -5 -34 -10z m46 -59 c0 -12 -28 -25 -36
-17 -9 9 6 27 22 27 8 0 14 -5 14 -10z m170 -80 c0 -12 -28 -25 -36 -17 -9 9
6 27 22 27 8 0 14 -5 14 -10z"/>
<path d="M1791 2460 c-20 -12 -10 -150 13 -185 22 -34 34 -29 72 28 l31 47 11
-39 c7 -21 19 -45 28 -52 14 -11 19 -10 35 10 37 45 63 181 39 196 -17 11 -36
-11 -50 -57 -12 -41 -13 -42 -20 -17 -22 78 -53 89 -78 29 -9 -22 -20 -40 -23
-40 -4 0 -10 15 -13 34 -8 40 -26 58 -45 46z"/>
<path d="M2613 2458 c-25 -12 -37 -47 -19 -54 7 -3 25 0 40 6 15 5 32 8 37 4
18 -11 8 -25 -31 -40 -61 -25 -79 -74 -39 -109 17 -16 25 -17 51 -7 25 9 33 8
45 -4 26 -26 43 1 43 68 0 117 -52 173 -127 136z m67 -133 c0 -8 -9 -15 -20
-15 -22 0 -27 15 -7 23 21 9 27 7 27 -8z"/>
<path d="M2933 2450 c-4 -16 -8 -18 -19 -9 -9 7 -31 9 -59 6 -27 -4 -45 -3
-45 3 0 18 -29 10 -40 -11 -16 -29 -2 -179 17 -186 23 -9 34 10 40 71 7 65 19
79 65 74 l33 -3 3 -65 c3 -72 13 -90 37 -70 10 8 15 30 15 64 0 28 7 59 14 69
21 28 29 4 22 -62 -5 -40 -3 -62 7 -75 11 -14 15 -15 24 -4 37 47 45 166 13
198 -23 23 -33 24 -63 9 -16 -9 -22 -9 -25 0 -6 19 -34 12 -39 -9z"/>
<path d="M4291 2444 c-40 -51 -46 -104 -18 -163 23 -47 86 -46 116 1 18 30 0
45 -35 29 -34 -15 -47 0 -40 48 5 36 25 64 32 46 18 -46 54 -44 54 3 0 60 -72
84 -109 36z"/>
<path d="M3103 2284 c-4 -10 1 -20 11 -26 9 -5 14 -13 11 -18 -3 -5 -1 -11 3
-14 12 -7 33 40 26 59 -8 20 -43 19 -51 -1z"/>
<path d="M2616 2073 c-6 -14 -5 -15 5 -6 7 7 10 15 7 18 -3 3 -9 -2 -12 -12z"/>
<path d="M3557 2066 c-18 -15 -23 -23 -13 -23 8 0 18 7 20 14 3 8 10 12 15 8
5 -3 12 -1 15 4 13 20 -10 18 -37 -3z"/>
<path d="M2430 2076 c0 -2 8 -10 18 -17 15 -13 16 -12 3 4 -13 16 -21 21 -21
13z"/>
<path d="M4040 2070 c0 -5 5 -10 11 -10 5 0 7 5 4 10 -3 6 -8 10 -11 10 -2 0
-4 -4 -4 -10z"/>
<path d="M4216 2068 c3 -4 11 -5 19 -1 21 7 19 12 -4 10 -11 0 -18 -5 -15 -9z"/>
<path d="M3383 2055 c0 -8 4 -12 9 -9 5 3 6 10 3 15 -9 13 -12 11 -12 -6z"/>
<path d="M2265 1991 c-6 -11 13 -26 22 -17 4 3 1 6 -6 6 -7 0 -9 5 -6 10 3 6
4 10 1 10 -3 0 -7 -4 -11 -9z"/>
<path d="M2040 1915 c-7 -9 -8 -15 -2 -15 5 0 12 7 16 15 3 8 4 15 2 15 -2 0
-9 -7 -16 -15z"/>
<path d="M2286 1869 c2 -4 -2 -10 -8 -12 -8 -4 -9 -6 -2 -6 6 -1 17 5 23 12 8
10 7 14 -4 14 -8 0 -12 -4 -9 -8z"/>
<path d="M3562 1841 c-11 -6 -10 -10 4 -15 9 -4 22 -2 28 4 8 8 6 9 -8 4 -13
-5 -17 -4 -12 4 8 14 6 15 -12 3z"/>
<path d="M2976 1828 c3 -5 10 -6 15 -3 13 9 11 12 -6 12 -8 0 -12 -4 -9 -9z"/>
<path d="M3009 1823 c-13 -16 -12 -17 4 -4 16 13 21 21 13 21 -2 0 -10 -8 -17
-17z"/>
<path d="M3130 1791 c0 -6 4 -13 10 -16 6 -3 7 1 4 9 -7 18 -14 21 -14 7z"/>
<path d="M2920 1781 c0 -6 4 -13 10 -16 6 -3 7 1 4 9 -7 18 -14 21 -14 7z"/>
<path d="M3566 1767 c3 -10 9 -15 12 -12 3 3 0 11 -7 18 -10 9 -11 8 -5 -6z"/>
<path d="M2400 1736 c0 -2 8 -10 18 -17 15 -13 16 -12 3 4 -13 16 -21 21 -21
13z"/>
<path d="M2371 1723 c-1 -17 16 -25 25 -12 4 7 3 9 -4 5 -5 -3 -13 0 -15 6 -4
9 -6 10 -6 1z"/>
</g>
</svg>
